/* XPM */
static const char *aussielotto[] = {
/* columns rows colors chars-per-pixel */
"32 32 202 2 ",
"   c #367A7B",
".  c #467C76",
"X  c #7D7D7D",
"o  c #A37434",
"O  c #FC7E0B",
"+  c #F97807",
"@  c #F67E14",
"#  c #EC740E",
"$  c #3C837F",
"%  c #4C8D7C",
"&  c #448477",
"*  c #518F7A",
"=  c #548F72",
"-  c #5D9875",
";  c #579376",
":  c #5C916B",
">  c #6A9E6B",
",  c #65996D",
"<  c #729E63",
"1  c #649C74",
"2  c #648364",
"3  c #6EA36F",
"4  c #72A56E",
"5  c #7BAA6B",
"6  c #7DA762",
"7  c #6BA071",
"8  c #FD830A",
"9  c #FF890E",
"0  c #F78814",
"q  c #EC9317",
"w  c #FE9312",
"e  c #FE9A14",
"r  c #EEAA1E",
"t  c #FDA419",
"y  c #FDAC1D",
"u  c #FEB11E",
"i  c #D08524",
"p  c #F3912A",
"a  c #FBA221",
"s  c #FFBC22",
"d  c #F6B723",
"f  c #F2BB2F",
"g  c #FFC526",
"h  c #FDCB2B",
"j  c #F9CB2A",
"k  c #FFD32B",
"l  c #FFDA2F",
"z  c #FFDE31",
"x  c #F8D833",
"c  c #EDCF2E",
"v  c #ECEC3A",
"b  c #E8E537",
"n  c #FFE433",
"m  c #FDEB36",
"M  c #F8E838",
"N  c #F1F13B",
"B  c #FEF339",
"V  c #FEFB3D",
"C  c #83854B",
"Z  c #82AC64",
"A  c #D8995C",
"S  c #F69F41",
"D  c #F6A141",
"F  c #F6A758",
"G  c #D49D6B",
"H  c #F5B973",
"J  c #F8D152",
"K  c #FBEA43",
"L  c #F8E654",
"P  c #F5DF74",
"I  c #00568B",
"U  c #01598E",
"Y  c #065885",
"T  c #015B93",
"R  c #0A5F94",
"E  c #1C5990",
"W  c #0F658F",
"Q  c #176A8B",
"!  c #0B6291",
"~  c #176799",
"^  c #246F81",
"/  c #287585",
"(  c #277586",
")  c #357E87",
"_  c #266C98",
"`  c #27729F",
"'  c #2B7690",
"]  c #307895",
"[  c #3479A4",
"{  c #687DB5",
"}  c #AD01EC",
"|  c #AF14EC",
" . c #B01EEB",
".. c #B601F9",
"X. c #BA02FF",
"o. c #BA0DFD",
"O. c #B007F0",
"+. c #BA11FC",
"@. c #BA1FF9",
"#. c #B43AE9",
"$. c #BA24F7",
"%. c #BA27F6",
"&. c #BB33F5",
"*. c #AD24E6",
"=. c #AD45DF",
"-. c #BB54EE",
";. c #B856E9",
":. c #BC43F1",
">. c #BB48F1",
",. c #BA4CEE",
"<. c #BA63E9",
"1. c #BA6AE7",
"2. c #BB75E6",
"3. c #BB7CE4",
"4. c #C046F0",
"5. c #CB6BF1",
"6. c #C275E8",
"7. c #3D8382",
"8. c #418780",
"9. c #5E9591",
"0. c #649B81",
"q. c #71A282",
"w. c #73A29A",
"e. c #5789AB",
"r. c #508BAF",
"t. c #6898B3",
"y. c #709BA9",
"u. c #75A3A8",
"i. c #8B8B8B",
"p. c #878787",
"a. c #939393",
"s. c #9A9A9A",
"d. c #83AC8E",
"f. c #BCAE9F",
"g. c #89B0A0",
"h. c #99BAA3",
"j. c #A6A6A6",
"k. c #ABABAB",
"l. c #B3B3B4",
"z. c #BCBCBC",
"x. c #BFBEB7",
"c. c #B2A5B6",
"v. c #CAA88A",
"b. c #C4B09A",
"n. c #ACC6B9",
"m. c #ADC6B6",
"M. c #F3C683",
"N. c #F3CF93",
"B. c #F4D78E",
"V. c #F4EA9B",
"C. c #F5EAB5",
"Z. c #AB89D1",
"A. c #BB9DDD",
"S. c #B783DD",
"D. c #9FBDD0",
"F. c #94B4C4",
"G. c #BEA1DF",
"H. c #BCACDB",
"J. c #BDB2DA",
"K. c #BCBED8",
"L. c #A9A6D0",
"P. c #BC8AE3",
"I. c #BC96E1",
"U. c #C199DF",
"Y. c #D79CEF",
"T. c #C680E9",
"R. c #C9A5E3",
"E. c #D3A8EA",
"W. c #DBB0EF",
"Q. c #BDC1D6",
"!. c #BCCCD5",
"~. c #BDC9D8",
"^. c #AFC8C9",
"/. c #C3C3C4",
"(. c #CDCDCE",
"). c #C4C9D7",
"_. c #CFC9DF",
"`. c #D0CBDF",
"'. c #C6D7DC",
"]. c #DADADA",
"[. c #D2D2D3",
"{. c #F6DDC2",
"}. c #F4E7C8",
"|. c #F5F1D3",
" X c #F9EDD3",
".X c #D4C7E4",
"XX c #C4D6E1",
"oX c #D8E3E4",
"OX c #E3E3E3",
"+X c #EAECEC",
"@X c #E1EAEF",
"#X c #EAF0EE",
"$X c #F7F3E9",
"%X c #ECECF1",
"&X c #F4EBF8",
"*X c #F2EEF5",
"=X c #EEF1F4",
"-X c #F2F3F3",
";X c #FBFAF6",
":X c #FDFDFD",
">X c #F6F4F9",
",X c None",
/* pixels */
",X,X,X,X,X,X,X,X,X,X,X,X,X,X,X,X,X,X,X,X,X,X,X,X,X,X,X,X,X,X,X,X",
",X,X,X,X,X,X,X,X,X,X,X,X,X,X,X,X,X,X,X,X,Xv N N N N v ,X,X,X,X,X",
",X,X,X,X,X,X,X,X,X,X,X,X,X,X,X,X,X,X,Xb B B V K V V V V v ,X,X,X",
",X,X,X,X,X,X,X,X,X,X,X,X,X,X,X,X,X,Xx m B B B B B V V V V v ,X,X",
",X,X,X,X,X,X,X,X,X,X,X,X,X,X,X,X,Xc z z n n M K K m B B V B b ,X",
",X,X,X,X,X6 6 Z Z 5 6 ,X,X,X,X,X,Xh k l x P C.|.}.V.L m m B M ,X",
",X,X,X< 5 5 5 5 5 5 5 5 > ,X,X,Xd g h h B.;X:X:X:X:X|.L n n m x ",
",X,X> 4 4 3 3 3 > 7 > 7 7 , ,X,Xd s u J $X[.OX:X:X+X-XC.z x x x ",
",X: 1 1 1 1 d.m.m.h.q.- - - = ,Xy u u B.:Xn.l.:XOXp.].$XJ k k j ",
",X; ; ; 1 ^.-X:X:X;XoXg.* * % C e t t N.:X].z.>Xj.i.(.&XJ u j r ",
"& % % % n.:X:X-X-X:X:X#Xw.$ 8.2 q e e H ;Xl.a.+X/.i./. Xc g s u ",
"  8.$ 9.#X:X=Xk.j.+X:X:X^.7.7.. i e e p {.+XOX>X:X=X-XP y u u r ",
"  )   u.>X:X+Xi.i.OX:X:X'.7.( / o 8 9 9 D {.:X:X:X$XM.t e t y ,X",
"^ ^ Q y.>X:XOXa.s.[.:X:XXX] Q Q ,X+ @ 0 8 0 F H H D 0 e e e q ,X",
"Q ! W ] oX:X>Xz.l.-X:X:XF.! W ' u.f.b.b.v.A p O 8 8 9 9 0 0 ,X,X",
"  I ! ! t.=X:X:X:X:X:X'.` T e.F.~.!.!.!.!.Q.x.G @ + 8 8 # ,X,X,X",
",XU T T T t.XX=X>X@XD.` T t.!.!.!.Q.!.!.!.!.!.!.v.# # ,X,X,X,X,X",
",X,XT T T T ~ [ r.` R T e.Q.Q.Q.K.).).).Q.K.K.K.K.c.,X,X,X,X,X,X",
",X,XI U T T T T U T T _ L.J.J.J.`.%X;X>X%X.XH.H.H.H.,X,X,X,X,X,X",
",X,X,X,XT T T T T T T { G.R.A..X>X:X;X;X:X;X.XA.I.I.Z.,X,X,X,X,X",
",X,X,X,X,X,XI I I I E Z.U.P.R.>X:X#Xk.k.-X:X&XU.P.P.S.,X,X,X,X,X",
",X,X,X,X,X,X,X,X,X,X,X2.3.3.E.:X:X].j.a.(.:X:XR.2.2.2.,X,X,X,X,X",
",X,X,X,X,X,X,X,X,X,X,X1.2.1.E.:X:X>Xj.X ].:X:XE.;.1.<.,X,X,X,X,X",
",X,X,X,X,X,X,X,X,X,X,X;.-.-.T.>X:X;X/.(.;X:X>X6.-.-.;.,X,X,X,X,X",
",X,X,X,X,X,X,X,X,X,X,X=.>.>.>.W.:X:X:X:X:X:XE.:.:.&.=.,X,X,X,X,X",
",X,X,X,X,X,X,X,X,X,X,X,X#.&.&.4.Y.&X:X:X&XY.:.&.&.&.,X,X,X,X,X,X",
",X,X,X,X,X,X,X,X,X,X,X,X*.%.$.$.$.4.5.5.:.@.@.$.$. .,X,X,X,X,X,X",
",X,X,X,X,X,X,X,X,X,X,X,X,X| +.+.+.o.o.X.o.o.o.o.O.,X,X,X,X,X,X,X",
",X,X,X,X,X,X,X,X,X,X,X,X,X,X} ..X.X.X.X.X.X...} ,X,X,X,X,X,X,X,X",
",X,X,X,X,X,X,X,X,X,X,X,X,X,X,X,X} } ......} ,X,X,X,X,X,X,X,X,X,X",
",X,X,X,X,X,X,X,X,X,X,X,X,X,X,X,X,X,X,X,X,X,X,X,X,X,X,X,X,X,X,X,X",
",X,X,X,X,X,X,X,X,X,X,X,X,X,X,X,X,X,X,X,X,X,X,X,X,X,X,X,X,X,X,X,X"
};
